<svg xmlns="http://www.w3.org/2000/svg" xmlns:xlink="http://www.w3.org/1999/xlink" version="1.1" id="Layer_1" x="0px" y="0px" style="enable-background:new 0 0 500 500;" xml:space="preserve" viewBox="67.5 219.7 365.1 60.61">
<g id="XMLID_1_">
	<path id="XMLID_23_" d="M67.5,280.3c0,0,0.4-0.3,0.8-0.7c5.6-5,10-12.6,13.4-23c0.8-2.4,1.6-5.3,4.4-15.3c0.5-1.9,1.1-4,1.3-4.8   c0.2-0.7,0.4-1.4,0.3-1.4s-1.3-0.7-2.8-1.5c-1.5-0.8-2.8-1.5-2.8-1.5c0,0,5.6,0,14.4,0H111l0,0.1c-0.3,1.1-1.7,6.6-1.8,6.6   c0,0-0.7-0.8-1.6-1.8l-1.6-1.8l-5.3,0l-5.3,0l-1.6,6.1c-0.9,3.4-1.6,6.1-1.6,6.2l0,0.1h6h6l1.1-0.8c0.6-0.5,1.2-0.9,1.4-1.1   l0.3-0.2l-0.1,0.3c-0.7,2.4-2.3,7.8-2.3,7.8c0,0-0.3-0.7-0.7-1.6l-0.6-1.6h-1.5c-0.8,0-3.5,0-6,0l-4.5,0l-0.7,2.1   c-0.9,2.6-1.2,3.7-1.8,5.1c-3.9,9.9-10.6,17.5-18.6,21.4C69.1,279.7,67.4,280.4,67.5,280.3L67.5,280.3z M290,280.2   c0-0.1,0.3-0.4,0.6-0.7c1.8-2,3-3.7,4.2-6.1c1.5-2.8,2.1-4.6,3.5-9.7c0.2-0.9,2.3-8.5,4.5-16.9c2.2-8.4,4.4-16.5,4.7-17.9l0.7-2.6   l0-0.4c-0.1-1.3-1.5-2.4-4.4-3.2c-0.4-0.1-0.8-0.2-0.8-0.2c0,0,0.1-0.3,0.2-0.6l0.2-0.6l16,0l16,0l0.5-0.1c1.5-0.2,2.4-0.5,3.7-1.3   l0.4-0.2v0.1c0,0-0.2,3.2-0.5,7.1c-0.3,3.9-0.5,7.1-0.5,7.1v0.1l-0.5,0.1c-0.3,0.1-0.5,0.1-0.6,0.1l-0.1,0l-0.1-0.3   c-0.1-0.5-0.4-1.4-0.7-2c-1.9-4.5-6.4-7.3-12.7-8c-1.1-0.1-2.5-0.2-3.5-0.2l-0.9,0l-2.6,9.8c-1.4,5.4-2.5,9.8-2.5,9.8   c0.1,0.1,7-2.5,9.1-3.5l0.8-0.4l0.6,0.1c1.2,0.2,2,0.5,3.4,1.2c3.1,1.6,4.7,3.4,5.5,6.4l0.1,0.5l-4.1,1.4c-2.2,0.8-4.1,1.4-4.1,1.4   c0,0,0-0.3-0.1-0.6c-0.2-2.4-1.2-4-3.2-5.1c-0.5-0.3-0.9-0.4-1.7-0.5l-0.6-0.1l-1.1,0c-1.2,0-2.1,0.1-3.1,0.3   c-0.9,0.2-1.9,0.5-2.2,0.6c-0.1,0-5.7,20.6-6.6,24l-0.5,1.9l0,0.7l0,0.7l0.2,0.4c0.2,0.5,0.8,1,1.1,1.2c0.1,0.1,0.4,0.2,0.6,0.2   l0.3,0.1l0.1,0.3c0,0.2,0.1,0.3,0.1,0.3c0,0-4.4,1.2-9.7,2.6C294.5,279.1,290.1,280.3,290,280.2L290,280.2L290,280.2L290,280.2z    M364.8,266.7c-0.8-0.1-1.8-0.4-2.4-0.7c-1.3-0.6-2.1-1.6-2.4-2.8l-0.1-0.4v-0.9c0-0.9,0.1-1.4,0.3-2.8c0.2-1,0.4-1.9,3.2-12.8   c1.4-5.3,2.5-9.7,2.5-9.7v-0.1h-2.9h-2.9l0-0.1c0,0,0.2-0.8,0.4-1.7l0.4-1.6l2.9,0l2.9,0l0.6-1.9c0.6-2.1,0.9-3.2,1-4l0.1-0.6   l-0.1-0.4c-0.1-0.7-0.4-1.2-1-1.9c-0.2-0.2-0.3-0.3-0.3-0.4c0,0,0.3-0.1,0.5-0.3c1.1-0.6,3.7-1.5,6.2-2.2c2.1-0.6,5.4-1.4,5.5-1.3   c0,0-0.7,2.9-1.7,6.4c-0.9,3.5-1.7,6.4-1.7,6.4v0.1h3.6h3.6v0.1c0,0.1-0.8,3.3-0.9,3.3c0,0-1.7,0-3.7,0H375l-0.2,0.6   c-0.3,1.1-4.4,17.2-4.7,18.2c-0.1,0.5-0.3,1.2-0.3,1.5l-0.1,0.6l0,0.5l0,0.5l0.2,0.4c0.3,0.5,0.6,0.9,1.1,1.1   c0.5,0.3,0.9,0.3,1.7,0.4l0.7,0l0.5-0.1c0.7-0.1,1.5-0.4,2.4-0.8c0.4-0.2,0.8-0.4,0.8-0.3c0,0-0.2,0.4-0.4,0.8   c-1.2,2.1-2,3.2-3.5,4.3c-1.7,1.3-3.7,2.1-5.8,2.4C366.9,266.7,365.2,266.7,364.8,266.7L364.8,266.7z M399.6,266.1   c0,0,0.1-0.3,0.2-0.7c1-3.6,3.1-6.7,6-9.2c0.4-0.3,0.9-0.7,0.9-0.7c0,0,0,0.3-0.1,0.7c-0.1,0.5-0.2,0.9-0.2,1.4l0,0.7l0.1,0.4   c0.4,2.1,1.5,3.5,3.3,4.2c0.9,0.4,1.8,0.6,3.1,0.6c0.9,0,1.3,0,2.1-0.2c2.8-0.7,5-2.9,5.4-5.5l0.1-0.5l0-0.6c0-0.8-0.1-1.1-0.4-1.7   c-0.3-0.5-0.6-0.9-1.2-1.4c-0.8-0.6-1.5-0.9-5.3-2.2c-2.3-0.8-2.8-1-3.6-1.4c-1.3-0.6-2.1-1.4-2.7-2.3c-0.1-0.1-0.2-0.5-0.3-0.8   l-0.2-0.5l0-0.7l0-0.7l0.1-0.5c0.3-1.6,1.1-3.1,2.6-4.5c2.6-2.6,6.8-4.3,10.3-4.3c0.5,0,2,0.1,3.2,0.2c2.3,0.2,4.9,0.3,5.9,0.1   c1.2-0.2,2.1-0.5,3.3-1.2l0.4-0.2l0,0.1c-0.1,0.5-0.7,1.9-1.1,2.7c-1.1,2.1-2.7,3.8-3.8,3.9l-0.3,0l-0.2-0.1   c-0.3-0.1-0.7-0.4-1.9-1.6c-1.5-1.4-2-1.8-2.9-2l-0.3-0.1l-0.9,0l-0.9,0l-0.4,0.1c-1.5,0.4-2.7,1.5-3.2,2.8   c-0.2,0.5-0.3,0.9-0.3,1.5c0,0.9,0.3,1.6,0.9,2.3c0.7,0.8,1.9,1.4,4.7,2.2c1.5,0.4,2.1,0.6,3,1c1.4,0.6,2.6,1.3,3.4,2.1   c1,1,1.5,2,1.7,3.5l0.1,0.6l-0.1,0.7c-0.4,4.3-2.9,7.6-7.4,9.7c-2.5,1.2-5.1,1.7-7.4,1.7c-1.3-0.1-2.5-0.2-5.3-0.8l-1.7-0.3l-1,0   c-1.9,0-2.8,0.2-5.9,1.2C400.2,266,399.7,266.2,399.6,266.1C399.6,266.2,399.6,266.2,399.6,266.1L399.6,266.1z M334.4,265.7   c-2.1-0.2-3.8-0.9-4.9-2c-0.7-0.7-1.1-1.3-1.4-2.3l-0.1-0.5l0-1l0-1l0.1-0.5c0.5-2,1.5-3.7,3.1-5.2c3-2.9,7.7-4.9,13-5.4l0.9-0.1   h2.2h2.2l0.3-1.3c0.7-2.7,0.9-3.5,1-4.1c0.2-1.4,0.2-2.1-0.2-2.8c-0.5-1-1.4-1.5-2.8-1.5c-1.7,0-2.5,0.5-5.5,3.4   c-1.6,1.5-2.5,2.2-3.4,2.6c-1.2,0.5-2.4,0.6-3.3,0.1c-0.8-0.4-1.4-1.2-1.7-2.3c-0.2-0.7-0.3-1.3-0.3-2.2l0-0.9l0.1-0.6   c0.2-0.9,0.4-2,0.6-2.1c0,0,0.2,0.1,0.5,0.2c1.2,0.8,2.2,1.1,3.8,1.1c1.1,0,1.6-0.1,3.5-0.5c2.2-0.5,2.9-0.7,4.1-0.9   c1.6-0.3,2.1-0.3,3.5-0.3l1.3,0l0.7,0.1c2.2,0.3,4.1,1,5.6,2l0.6,0.4l0.6,0.6l0.6,0.6l0.2,0.4c0.3,0.5,0.5,1,0.6,1.5l0.1,0.4l0,0.6   c-0.1,1.1-0.2,1.6-2.1,9.1c-2.1,8.1-2.2,8.7-2.2,10.3c0,1.4,0.3,2.2,1.3,3.3l0.4,0.4l-5.3,0l-5.3,0l-0.2-0.3   c-0.5-0.6-0.6-1.2-0.7-2.2l-0.1-0.7l-0.5,0.3c-2.6,1.8-5.3,2.9-7.7,3.3C336.8,265.7,335.1,265.7,334.4,265.7L334.4,265.7z    M343.3,261.6c0.5-0.1,1.7-0.5,2.3-0.7l0.4-0.2l1.6-6c0.9-3.3,1.5-6,1.5-6c-0.1-0.1-2.4,0.4-3.3,0.8c-2.4,0.8-4.5,2.1-5.8,3.6   c-1.8,2.1-2.6,4.8-1.8,6.5C339,261.2,340.8,262,343.3,261.6z M386.4,265.7c-1.5-0.1-3.1-0.6-4.2-1.2c-2.8-1.5-4.4-4.1-4.9-7.6   c-0.1-0.7-0.1-2.3,0-3.1c0.5-4.5,2.8-9,6.5-12.6c3.1-3.1,6.7-5.1,10.2-5.8c0.9-0.2,1.5-0.2,2.4-0.2c1.7,0,3.1,0.3,4.4,0.9   c2.7,1.4,4.3,4.1,4.7,7.9l0,0.4l-0.3,0.2c-1,0.6-3.3,2.1-5,3c-4.5,2.5-9.4,4.7-13.5,6.1c-0.4,0.2-0.8,0.3-0.8,0.3   c0,0.1,0.6,1.1,1,1.6c1.2,1.6,2.6,2.4,4.8,2.8l0.5,0.1l1.3,0c0.8,0,1.5,0,1.8-0.1c2.4-0.3,4.5-1.3,8.4-3.8c0.6-0.4,1-0.6,1-0.6   c0,0-1.1,2-1.6,2.7c-1.1,1.6-2.3,2.9-3.9,4.3c-3,2.5-6.2,4-9.7,4.5C388.8,265.7,387,265.7,386.4,265.7L386.4,265.7z M386.8,251.9   c3.3-1.4,5.4-2.5,7.2-4c1.1-0.9,2.8-2.6,2.8-2.8c0-0.2-0.3-1.6-0.5-2.3c-0.5-1.7-1-2.8-1.7-3.4c-0.6-0.6-1.6-0.8-2.6-0.6   c-2.6,0.4-5.2,3.8-6.3,8.2c-0.4,1.6-0.5,2.6-0.4,3.6c0.1,0.8,0.2,1.8,0.3,1.8C385.7,252.3,386.2,252.1,386.8,251.9z M277,258.9   c0-0.1-2.3-20.8-2.3-20.9c0,0,0-0.1,0,0c0,0-4,15.2-4,15.3c0,0,0.5,0.4,1,0.9l1,0.8l-1.7,0c-0.9,0-2.4,0-3.3,0l-1.7,0l1-0.8l1-0.8   l0.1-0.2c0.1-0.2,5-19.2,5-19.3c0,0-0.5-0.4-1.1-0.9l-1.1-0.8l4.2,0c2.3,0,4.2,0,4.2,0c0,0,0.4,3.4,0.8,7.6   c0.4,4.2,0.8,7.7,0.8,7.8l0,0.2l4.9-7.8l4.9-7.8h3.9h3.9l-0.1,0.1c0,0-0.5,0.4-1,0.8l-1,0.8l0,0.2c-0.4,1.4-5,19.3-5,19.3   c0,0,0.5,0.4,1,0.9l1,0.8l-2.3,0c-1.3,0-3.4,0-4.7,0l-2.3,0l1-0.8l1-0.8l2-7.5c1.1-4.1,2-7.5,2-7.5c0,0-3,4.6-6.6,10.3   C280.1,254.2,277.1,258.9,277,258.9l0,0.1L277,258.9L277,258.9z M191,258.5c0-0.2-2-20.4-2.1-20.4c0-0.1-0.8,2.7-2,7.5   c-1.1,4.2-2,7.6-2,7.6l0,0.1l1.1,0.8l1.1,0.8l-1.7,0c-0.9,0-2.4,0-3.3,0l-1.7,0l1.1-0.8l1.1-0.8l2.5-9.7c1.4-5.4,2.5-9.8,2.5-9.8   c0,0-0.5-0.4-1.1-0.8l-1-0.8l4.2,0c2.3,0,4.2,0,4.2,0c0,0,0.4,3.5,0.8,7.8c0.4,4.2,0.8,7.7,0.8,7.8c0,0,2.2-3.4,4.9-7.7   c2.7-4.3,4.9-7.8,4.9-7.8l0.1-0.1l3.9,0l3.9,0l-1.1,0.8l-1.1,0.8l-2.5,9.7c-1.4,5.3-2.5,9.7-2.5,9.7c0,0,0.5,0.4,1,0.9l1.1,0.8   l-2.4,0c-1.3,0-3.4,0-4.7,0l-2.3,0l1-0.8c0.6-0.5,1.1-0.8,1.1-0.9c0-0.1,1-3.6,2.1-7.9c1.1-4.3,2.1-7.8,2.1-7.8   c0,0-3.1,4.7-6.9,10.6C194.1,253.8,191,258.6,191,258.5C191,258.6,191,258.5,191,258.5L191,258.5z M136.5,255.1   c-1.9-0.4-3.2-1.3-4.6-3.5c-0.4-0.6-1.2-2.3-1.6-3.2c-0.7-1.7-1.7-4.3-1.6-4.4c2.2-0.6,4.7-2.1,6-3.7c0.7-0.9,1.1-1.7,1.3-2.6   c0.1-0.5,0.1-1.3,0-1.7c-0.3-1-1-1.7-2.1-2l-0.4-0.1l-1.6,0l-1.6,0l-2.5,9.6c-1.4,5.3-2.5,9.7-2.5,9.7c0,0.1,0.3,0.4,0.8,0.9   l0.8,0.8l-2.2,0c-1.2,0-3.3,0-4.5,0l-2.3,0l1-0.8c0.6-0.4,1.1-0.9,1.1-0.9c0-0.1,5-19,5-19.3l0-0.2l-1.1-0.8l-1.1-0.8l0.5,0   c0.3,0,2.9,0,5.9,0l5.4,0l0.7,0.1c1.3,0.2,2.6,0.5,3.5,0.9c1.2,0.6,2.1,1.5,2.5,2.5l0.1,0.4l0,0.7l0,0.7l-0.1,0.5   c-0.2,1.2-0.7,1.9-1.7,3c-0.4,0.4-0.9,0.8-1.2,1c-1.4,1-3.2,2-4.6,2.3c-0.2,0.1-0.4,0.1-0.5,0.2c0,0,0,0.3,0.2,0.7   c0.6,1.8,2.2,5,3.4,6.8c1,1.6,1.8,2.5,2.4,2.9l0.2,0.2l-0.3,0.1C138.5,255.1,137.3,255.2,136.5,255.1L136.5,255.1z M294.2,254.9   c0-0.1,0.5-1.8,0.6-2l0-0.1h-0.3c-0.1,0-0.3,0-0.3,0c0,0,0-0.1,0.1-0.2l0.1-0.2h0.8h0.8l0,0.1c0,0.1-0.1,0.2-0.1,0.2l0,0.1h-0.3   h-0.3l-0.2,0.8c-0.1,0.4-0.3,0.9-0.3,1.1l-0.1,0.3l-0.2,0C294.3,254.9,294.2,254.9,294.2,254.9L294.2,254.9z M295.7,254.9   c-0.1,0-0.2,0-0.2-0.1c0,0,0.2-0.6,0.4-1.3l0.4-1.2l0.4,0l0.4,0l0,0.1c0,0.1,0,0.4-0.1,0.8c0,0.4-0.1,0.7-0.1,0.7   c0,0,0.2-0.3,0.4-0.8l0.4-0.8l0.4,0c0.2,0,0.4,0,0.4,0c0,0.1-0.8,2.5-0.8,2.5c0,0-0.1,0-0.2,0l-0.2,0l0.3-0.8   c0.1-0.4,0.2-0.8,0.2-0.8c0,0-0.2,0.4-0.5,0.8l-0.5,0.9h-0.2c-0.1,0-0.2,0-0.2-0.1c0,0,0-0.4,0.1-0.9c0-0.5,0.1-0.8,0.1-0.9   s-0.1,0.3-0.2,0.7c-0.3,0.9-0.3,1.1-0.4,1.1C295.9,254.9,295.8,254.9,295.7,254.9L295.7,254.9z M107.4,254.9c0,0,0.4-0.4,1-0.8   c0.5-0.4,1-0.8,1-0.8c0.1-0.1,5.1-19.4,5.1-19.5c0,0-0.3-0.4-0.7-0.9l-0.7-0.8l2.2,0c1.2,0,3.2,0,4.4,0l2.2,0l-1.1,0.8   c-0.6,0.4-1.1,0.8-1.1,0.8c-0.1,0.1-5.1,19.4-5.1,19.5c0,0,0.5,0.4,1,0.8c0.5,0.4,1,0.7,1,0.8l0.1,0.1h-4.8   C109.6,254.9,107.4,254.9,107.4,254.9L107.4,254.9z M139.7,254.8c0,0,0.5-0.4,1.1-0.8l1-0.8l2.5-9.7c1.4-5.4,2.5-9.8,2.5-9.8   c0,0-0.5-0.4-1.1-0.8l-1-0.8l7.4,0c4.1,0,7.4,0,7.4,0c0,0-1,5.2-1,5.3c0,0-0.1-0.1-1.1-2l-0.9-1.7h-2.1h-2.1l-1,3.8   c-0.5,2.1-1.1,4.1-1.2,4.4l-0.2,0.6h2h2l1.2-1c0.7-0.6,1.2-1,1.2-1c0,0.1-1.6,6.2-1.6,6.2c0,0-0.3-0.6-0.6-1.3l-0.6-1.3l-2,0l-2,0   l-1.2,4.5c-0.6,2.5-1.2,4.5-1.2,4.6l0,0.1l3.3,0l3.3,0l2-1.5c1.1-0.8,2-1.5,2-1.5c0,0-0.3,1.1-0.7,2.3l-0.7,2.3h-8.2   C143.3,254.9,139.6,254.9,139.7,254.8L139.7,254.8z M162.2,254.8c0.1-0.1,1.2-0.9,2-1.5c0,0,5.1-19.6,5.1-19.6c0,0-0.5-0.4-1.1-0.8   l-1-0.8l7.7,0c4.2,0,7.7,0,7.7,0c0,0-1,5.2-1,5.3c0,0-0.1-0.2-1.1-1.9l-1-1.8h-2.5h-2.5l-0.1,0.2c0,0.1-0.5,2-1.1,4.3   c-0.6,2.3-1.1,4.2-1.1,4.2l0,0.1l2,0l2,0l1.2-1c0.6-0.6,1.2-1,1.2-1c0,0-1.6,6.1-1.6,6.2c0,0-0.3-0.5-0.6-1.3l-0.6-1.3h-2h-2   l-0.1,0.2c0,0.1-0.6,2.1-1.2,4.5c-0.6,2.4-1.1,4.3-1.1,4.4v0.1l3.6,0l3.6,0l2-1.5c1.1-0.8,2-1.5,2-1.5c0,0-0.3,1.1-0.7,2.3   l-0.7,2.3l-8.6,0L162.2,254.8L162.2,254.8L162.2,254.8z M210.2,254.1c0.6-0.4,1.1-0.8,1.1-0.8c0,0,5.1-19.4,5.1-19.5   c0,0-0.4-0.4-1-0.8s-1-0.8-1.1-0.8l-0.1-0.1l5.9,0l5.9,0l0.7,0.1c3,0.4,4.8,1.2,5.7,2.5c0.6,0.9,0.7,1.9,0.3,3.1   c-0.3,1-1.2,2-2.7,3c-1.2,0.8-2.9,1.5-4.3,1.7c-0.4,0.1-0.5,0.1-0.1,0.2c0.1,0,0.5,0.1,0.8,0.1c2.5,0.5,4.5,1.8,5.2,3.4   c0.3,0.7,0.3,1.3,0.2,2c-0.3,1.6-1.2,3.1-2.4,4.1c-1.6,1.3-3.7,2.1-6.9,2.5l-0.7,0.1l-6.4,0l-6.4,0L210.2,254.1L210.2,254.1z    M220.2,253.2c1.8-0.2,3.2-0.8,4.4-1.9c1-1,1.7-2.3,2-3.7c0.4-2.5-1.5-4-5.8-4.5c-0.2,0-0.3-0.1-0.3-0.1c0,0,0.2-0.1,0.4-0.2   c0.9-0.3,2.4-1.1,3.4-1.7c1.9-1.3,3-2.5,3.3-3.8c0.5-2-0.4-3.2-2.5-3.5l-0.5-0.1l-1.4,0l-1.4,0l-0.1,0.2c-1.7,6.3-5,19.2-5,19.2   v0.1l1.5,0C219,253.3,219.9,253.2,220.2,253.2L220.2,253.2z M231.9,254.1c0.6-0.4,1.1-0.8,1.1-0.9c0.1-0.2,5.1-19.5,5.1-19.5   c0,0-0.5-0.4-1-0.8c-0.5-0.4-1-0.8-1-0.8l-0.1-0.1h5h5l-0.1,0.1c0,0-0.6,0.4-1.3,0.8l-1.2,0.8l-2.5,9.7c-1.4,5.3-2.5,9.7-2.5,9.8   l0,0.1h3h3l1.9-1.5c1-0.8,1.9-1.5,1.9-1.5c0,0-0.3,1.1-0.7,2.3l-0.8,2.3h-7.8h-7.8L231.9,254.1L231.9,254.1z M247.5,254.9   c0,0,0.5-0.4,1-0.8l1-0.8l0.1-0.3c0.3-1.1,5-19.3,5-19.3c0,0-0.5-0.4-1-0.8c-0.5-0.4-1-0.8-1-0.8c0,0,3.1,0,7.4,0   c4.1,0,7.4,0,7.4,0c0,0.1-1,5.3-1,5.3c0,0-0.5-0.8-1-1.8l-1-1.8h-2.2c-1.2,0-2.2,0-2.2,0c0,0-2.2,8.6-2.3,8.7l0,0.1l2,0l2,0l1.2-1   c0.7-0.6,1.2-1,1.2-1c0,0.1-1.6,6.1-1.6,6.2c0,0-0.3-0.5-0.6-1.3l-0.6-1.3l-2,0c-1.1,0-2,0-2,0s-0.5,2-1.1,4.4   c-0.6,2.4-1.2,4.5-1.2,4.5l0,0.1l3.3,0l3.3,0l2-1.5c1.1-0.8,2-1.5,2-1.5c0,0-0.3,1.1-0.7,2.3l-0.7,2.3l-8.2,0   C251.2,254.9,247.5,254.9,247.5,254.9L247.5,254.9z"  fill="#844b27"/>
</g>
</svg>